<svg width="363" height="423" viewBox="0 0 363 423" fill="none" xmlns="http://www.w3.org/2000/svg">
<rect x="12.2109" y="40.8994" width="338.578" height="366" rx="16" fill="#F4F4F4"/>
<path d="M159.078 418.399H80.0388H25C11.7452 418.399 1 407.654 1 394.399V54.8994C1 41.6446 11.7452 30.8994 25 30.8994H338C351.255 30.8994 362 41.6446 362 54.8994V394.399C362 407.654 351.255 418.399 338 418.399H203.922" stroke="#D0C693"/>
<path d="M153.472 414.899L160.199 418.899L153.472 422.899L128.808 418.899L153.472 414.899Z" fill="#D0C693"/>
<path d="M209.528 414.899L202.801 418.899L209.528 422.899L234.192 418.899L209.528 414.899Z" fill="#D0C693"/>
<ellipse cx="168.047" cy="418.899" rx="3.36336" ry="3" fill="#D0C693"/>
<ellipse cx="181.5" cy="418.899" rx="2.24223" ry="2" fill="#D0C693"/>
<ellipse cx="3.36336" cy="3" rx="3.36336" ry="3" transform="matrix(-1 0 0 1 198.317 415.899)" fill="#D0C693"/>
<path d="M59.2984 13.7165C74.0609 17.1303 86.3921 12.5499 92.3714 13.2165L105.825 52.8994C97.0427 53.8994 60.868 53.9462 53.6928 51.5462C46.5177 49.1462 37.2498 49.8795 33.5127 50.5462L53.6928 31.2166C51.4506 27.6166 38.9314 20.0499 33.5127 17.2166C37.9972 19.2166 44.1633 10.2166 59.2984 13.7165Z" fill="#C1B67A"/>
<path d="M105.825 52.8994L76.1152 43.3994H105.825V52.8994Z" fill="#8C8151"/>
<path d="M304.263 13.7165C289.501 17.1303 277.169 12.5499 271.19 13.2165L257.737 52.8994C266.519 53.8994 302.694 53.9462 309.869 51.5462C317.044 49.1462 326.312 49.8795 330.049 50.5462L309.869 31.2166C312.111 27.6166 324.63 20.0499 330.049 17.2166C325.564 19.2166 319.398 10.2166 304.263 13.7165Z" fill="#C1B67A"/>
<path d="M257.737 52.8994L287.446 43.3994H257.737V52.8994Z" fill="#8C8151"/>
<path d="M74.9941 5.02814C74.9941 4.03126 75.699 3.19327 76.6887 3.07379C85.4866 2.01165 127.792 -2.38024 185.985 3.28995C241.942 8.74229 276.68 4.8908 285.674 3.64244C286.905 3.47158 288.007 4.42847 288.007 5.67122V41.8995C288.007 43.004 287.102 43.8991 285.998 43.9029C247.409 44.0329 220.701 47.8316 185.985 43.8995C151.215 39.9613 119.497 43.7778 77.0023 43.8966C75.8977 43.8997 74.9941 43.004 74.9941 41.8995V5.02814Z" fill="#D0C693"/>
<path d="M108.488 23.7794V22.7234H114.664V23.7474L108.488 23.7794ZM108.92 28.0194C109.219 28.0087 109.448 27.9607 109.608 27.8754C109.768 27.7794 109.88 27.6194 109.944 27.3954C110.008 27.1607 110.04 26.8407 110.04 26.4354V20.0514C110.04 19.7847 110.046 19.5287 110.056 19.2834C110.078 19.0381 110.094 18.8461 110.104 18.7074C109.923 18.7181 109.715 18.7287 109.48 18.7394C109.246 18.7394 109.059 18.7447 108.92 18.7554V17.6994L113.272 17.6834C114.296 17.6834 115.198 17.8274 115.976 18.1154C116.766 18.3927 117.422 18.7874 117.944 19.2994C118.467 19.8114 118.862 20.4034 119.128 21.0754C119.406 21.7474 119.544 22.4674 119.544 23.2354C119.544 23.9074 119.422 24.5794 119.176 25.2514C118.942 25.9234 118.574 26.5367 118.072 27.0914C117.582 27.6354 116.942 28.0727 116.152 28.4034C115.374 28.7341 114.446 28.8994 113.368 28.8994H108.92V28.0194ZM112.056 26.5154C112.056 26.8034 112.051 27.0701 112.04 27.3154C112.03 27.5607 112.014 27.7527 111.992 27.8914C112.163 27.8914 112.35 27.8967 112.552 27.9074C112.755 27.9074 112.952 27.9127 113.144 27.9234C113.336 27.9234 113.48 27.9234 113.576 27.9234C114.195 27.9234 114.739 27.8007 115.208 27.5554C115.678 27.3101 116.067 26.9794 116.376 26.5634C116.696 26.1474 116.936 25.6727 117.096 25.1394C117.256 24.5954 117.336 24.0247 117.336 23.4274C117.336 22.3714 117.171 21.4914 116.84 20.7874C116.52 20.0727 116.056 19.5341 115.448 19.1714C114.84 18.7981 114.088 18.6061 113.192 18.5954C112.894 18.5847 112.659 18.6274 112.488 18.7234C112.318 18.8194 112.2 18.9794 112.136 19.2034C112.083 19.4274 112.056 19.7421 112.056 20.1474V26.5154ZM124.854 18.5794C124.577 18.5901 124.353 18.6381 124.182 18.7234C124.022 18.8087 123.905 18.9474 123.83 19.1394C123.766 19.3207 123.734 19.5821 123.734 19.9234V24.2114C123.734 24.8514 123.793 25.4114 123.91 25.8914C124.038 26.3607 124.22 26.7554 124.454 27.0754C124.689 27.3954 124.977 27.6354 125.318 27.7954C125.67 27.9554 126.076 28.0354 126.534 28.0354C127.174 28.0567 127.713 27.9234 128.15 27.6354C128.598 27.3474 128.934 26.9261 129.158 26.3714C129.382 25.8167 129.494 25.1394 129.494 24.3394L129.51 20.0514C129.51 19.7847 129.516 19.5287 129.526 19.2834C129.537 19.0381 129.553 18.8461 129.574 18.7074C129.393 18.7181 129.185 18.7287 128.95 18.7394C128.716 18.7394 128.529 18.7447 128.39 18.7554V17.6994H130.726L130.71 24.0674C130.71 24.9101 130.609 25.6514 130.406 26.2914C130.214 26.9207 129.926 27.4487 129.542 27.8754C129.158 28.3021 128.694 28.6221 128.15 28.8354C127.606 29.0487 126.988 29.1554 126.294 29.1554C125.409 29.1554 124.668 29.0327 124.07 28.7874C123.484 28.5421 123.014 28.1901 122.662 27.7314C122.321 27.2621 122.076 26.7127 121.926 26.0834C121.788 25.4434 121.718 24.7287 121.718 23.9394V20.2754C121.718 19.9981 121.724 19.7101 121.734 19.4114C121.756 19.1021 121.772 18.8674 121.782 18.7074C121.601 18.7181 121.393 18.7287 121.158 18.7394C120.924 18.7394 120.737 18.7447 120.598 18.7554V17.6994H124.854V18.5794ZM130.262 18.7074V17.7474C130.668 17.7474 130.982 17.6087 131.206 17.3314C131.441 17.0541 131.558 16.7661 131.558 16.4674H133.126C133.126 16.9154 133.009 17.3101 132.774 17.6514C132.54 17.9821 132.209 18.2434 131.782 18.4354C131.356 18.6167 130.849 18.7074 130.262 18.7074ZM138.5 31.9234C138.233 31.9234 138.014 31.8274 137.844 31.6354C137.673 31.4434 137.588 31.2141 137.588 30.9474C137.588 30.6807 137.678 30.4514 137.86 30.2594C138.041 30.0674 138.254 29.9714 138.5 29.9714C138.745 29.9714 138.953 30.0674 139.124 30.2594C139.294 30.4514 139.38 30.6807 139.38 30.9474C139.38 31.2141 139.294 31.4434 139.124 31.6354C138.964 31.8274 138.756 31.9234 138.5 31.9234ZM138.484 29.1554C137.47 29.1554 136.606 28.9847 135.892 28.6434C135.177 28.3021 134.596 27.8487 134.148 27.2834C133.71 26.7074 133.39 26.0727 133.188 25.3794C132.985 24.6861 132.884 23.9927 132.884 23.2994C132.884 22.6274 132.996 21.9501 133.22 21.2674C133.444 20.5741 133.785 19.9394 134.244 19.3634C134.713 18.7874 135.3 18.3234 136.004 17.9714C136.708 17.6194 137.534 17.4434 138.484 17.4434C139.454 17.4434 140.292 17.6194 140.996 17.9714C141.71 18.3234 142.292 18.7927 142.74 19.3794C143.198 19.9554 143.534 20.5847 143.748 21.2674C143.972 21.9501 144.084 22.6274 144.084 23.2994C144.084 23.9607 143.972 24.6327 143.748 25.3154C143.524 25.9981 143.177 26.6327 142.708 27.2194C142.249 27.7954 141.668 28.2647 140.964 28.6274C140.26 28.9794 139.433 29.1554 138.484 29.1554ZM138.612 28.1634C139.209 28.1634 139.71 28.0247 140.116 27.7474C140.532 27.4701 140.868 27.1074 141.124 26.6594C141.38 26.2114 141.566 25.7207 141.684 25.1874C141.812 24.6434 141.876 24.1101 141.876 23.5874C141.876 22.8727 141.801 22.2061 141.652 21.5874C141.502 20.9581 141.278 20.4087 140.98 19.9394C140.692 19.4701 140.324 19.1021 139.876 18.8354C139.428 18.5581 138.91 18.4247 138.324 18.4354C137.737 18.4461 137.236 18.5954 136.82 18.8834C136.414 19.1607 136.078 19.5287 135.812 19.9874C135.556 20.4354 135.369 20.9314 135.252 21.4754C135.134 22.0194 135.076 22.5527 135.076 23.0754C135.076 23.6087 135.14 24.1687 135.268 24.7554C135.396 25.3421 135.598 25.8967 135.876 26.4194C136.153 26.9421 136.516 27.3634 136.964 27.6834C137.422 28.0034 137.972 28.1634 138.612 28.1634ZM140.308 18.7074V17.7474C140.713 17.7474 141.028 17.6087 141.252 17.3314C141.486 17.0541 141.604 16.7661 141.604 16.4674H143.172C143.172 16.9154 143.054 17.3101 142.82 17.6514C142.585 17.9821 142.254 18.2434 141.828 18.4354C141.401 18.6167 140.894 18.7074 140.308 18.7074ZM153.977 21.2834C153.849 20.3554 153.535 19.6514 153.033 19.1714C152.532 18.6807 151.881 18.4354 151.081 18.4354C150.516 18.4354 150.009 18.5634 149.561 18.8194C149.124 19.0647 148.751 19.4061 148.441 19.8434C148.143 20.2701 147.913 20.7714 147.753 21.3474C147.593 21.9127 147.513 22.5207 147.513 23.1714C147.513 24.1207 147.663 24.9581 147.961 25.6834C148.271 26.4087 148.697 26.9794 149.241 27.3954C149.796 27.8114 150.441 28.0194 151.177 28.0194C151.86 28.0194 152.532 27.8541 153.193 27.5234C153.865 27.1821 154.42 26.7021 154.857 26.0834L155.513 26.6754C155.012 27.3581 154.479 27.8807 153.913 28.2434C153.348 28.5954 152.793 28.8354 152.249 28.9634C151.716 29.0914 151.231 29.1554 150.793 29.1554C149.972 29.1554 149.225 29.0114 148.553 28.7234C147.892 28.4247 147.316 28.0194 146.825 27.5074C146.345 26.9847 145.972 26.3821 145.705 25.6994C145.449 25.0061 145.321 24.2594 145.321 23.4594C145.321 22.7234 145.433 21.9981 145.657 21.2834C145.892 20.5687 146.239 19.9234 146.697 19.3474C147.167 18.7714 147.753 18.3127 148.457 17.9714C149.161 17.6194 149.977 17.4434 150.905 17.4434C151.375 17.4434 151.865 17.5181 152.377 17.6674C152.889 17.8061 153.369 18.0141 153.817 18.2914L153.753 17.5554H154.857V21.2834H153.977ZM172.011 32.3874C171.552 32.3874 171.179 32.3714 170.891 32.3394C170.603 32.3074 170.336 32.2274 170.091 32.0994C169.856 31.9821 169.584 31.7847 169.275 31.5074C168.816 31.0914 168.421 30.7074 168.091 30.3554C167.771 30.0034 167.456 29.7154 167.147 29.4914C166.848 29.2674 166.491 29.1554 166.075 29.1554C165.093 29.1447 164.251 28.9687 163.547 28.6274C162.853 28.2754 162.288 27.8167 161.851 27.2514C161.424 26.6861 161.109 26.0567 160.907 25.3634C160.704 24.6701 160.603 23.9821 160.603 23.2994C160.603 22.6274 160.715 21.9501 160.939 21.2674C161.173 20.5741 161.52 19.9394 161.979 19.3634C162.448 18.7874 163.035 18.3234 163.739 17.9714C164.443 17.6194 165.264 17.4434 166.203 17.4434C167.184 17.4434 168.027 17.6194 168.731 17.9714C169.435 18.3234 170.011 18.7927 170.459 19.3794C170.917 19.9554 171.253 20.5847 171.467 21.2674C171.691 21.9501 171.803 22.6274 171.803 23.2994C171.803 23.8541 171.723 24.4141 171.563 24.9794C171.413 25.5447 171.179 26.0887 170.859 26.6114C170.539 27.1234 170.139 27.5767 169.659 27.9714C169.179 28.3661 168.619 28.6701 167.979 28.8834C168.277 28.8834 168.544 28.9047 168.779 28.9474C169.013 28.9901 169.248 29.0754 169.483 29.2034C169.728 29.3421 169.995 29.5501 170.283 29.8274C170.656 30.1687 170.955 30.4461 171.179 30.6594C171.413 30.8834 171.605 31.0541 171.755 31.1714C171.915 31.2994 172.059 31.3847 172.187 31.4274C172.325 31.4701 172.475 31.4914 172.635 31.4914V32.3874H172.011ZM166.331 28.1634C166.928 28.1634 167.429 28.0247 167.835 27.7474C168.251 27.4701 168.587 27.1074 168.843 26.6594C169.099 26.2114 169.285 25.7207 169.403 25.1874C169.531 24.6434 169.595 24.1101 169.595 23.5874C169.595 22.8727 169.52 22.2061 169.371 21.5874C169.232 20.9581 169.013 20.4087 168.715 19.9394C168.427 19.4701 168.059 19.1021 167.611 18.8354C167.163 18.5581 166.645 18.4247 166.059 18.4354C165.461 18.4461 164.955 18.5954 164.539 18.8834C164.133 19.1607 163.803 19.5287 163.547 19.9874C163.291 20.4354 163.104 20.9314 162.987 21.4754C162.869 22.0194 162.811 22.5527 162.811 23.0754C162.811 23.6087 162.875 24.1687 163.003 24.7554C163.131 25.3421 163.333 25.8967 163.611 26.4194C163.888 26.9421 164.251 27.3634 164.699 27.6834C165.147 28.0034 165.691 28.1634 166.331 28.1634ZM177.058 18.5794C176.78 18.5901 176.556 18.6381 176.386 18.7234C176.226 18.8087 176.108 18.9474 176.034 19.1394C175.97 19.3207 175.938 19.5821 175.938 19.9234V24.2114C175.938 24.8514 175.996 25.4114 176.114 25.8914C176.242 26.3607 176.423 26.7554 176.658 27.0754C176.892 27.3954 177.18 27.6354 177.522 27.7954C177.874 27.9554 178.279 28.0354 178.738 28.0354C179.378 28.0567 179.916 27.9234 180.354 27.6354C180.802 27.3474 181.138 26.9261 181.362 26.3714C181.586 25.8167 181.698 25.1394 181.698 24.3394L181.714 20.0514C181.714 19.7847 181.719 19.5287 181.73 19.2834C181.74 19.0381 181.756 18.8461 181.778 18.7074C181.596 18.7181 181.388 18.7287 181.154 18.7394C180.919 18.7394 180.732 18.7447 180.594 18.7554V17.6994H184.05V18.5794C183.762 18.5901 183.532 18.6434 183.362 18.7394C183.202 18.8247 183.09 18.9794 183.026 19.2034C182.962 19.4274 182.93 19.7474 182.93 20.1634L182.914 24.0674C182.914 24.9101 182.812 25.6514 182.61 26.2914C182.418 26.9207 182.13 27.4487 181.746 27.8754C181.362 28.3021 180.898 28.6221 180.354 28.8354C179.81 29.0487 179.191 29.1554 178.498 29.1554C177.612 29.1554 176.871 29.0327 176.274 28.7874C175.687 28.5421 175.218 28.1901 174.866 27.7314C174.524 27.2621 174.279 26.7127 174.13 26.0834C173.991 25.4434 173.922 24.7287 173.922 23.9394V20.2754C173.922 19.9981 173.927 19.7101 173.938 19.4114C173.959 19.1021 173.975 18.8674 173.986 18.7074C173.804 18.7181 173.596 18.7287 173.362 18.7394C173.127 18.7394 172.94 18.7447 172.802 18.7554V17.6994H177.058V18.5794ZM183.901 28.8994V27.9874C184.199 27.9874 184.439 27.9021 184.621 27.7314C184.802 27.5607 184.951 27.3367 185.069 27.0594C185.186 26.7714 185.309 26.4514 185.437 26.0994L188.621 17.4114H189.485L192.957 26.2594C193.021 26.4407 193.106 26.6967 193.213 27.0274C193.319 27.3581 193.378 27.6461 193.389 27.8914C193.57 27.8807 193.746 27.8701 193.917 27.8594C194.087 27.8487 194.237 27.8434 194.365 27.8434V28.8994H190.285V28.0194C190.615 28.0194 190.839 27.9501 190.957 27.8114C191.074 27.6727 191.122 27.4914 191.101 27.2674C191.09 27.0434 191.037 26.8141 190.941 26.5794L190.541 25.4914L186.829 25.5554L186.477 26.6274C186.413 26.8087 186.338 27.0167 186.253 27.2514C186.167 27.4754 186.082 27.6781 185.997 27.8594C186.189 27.8487 186.397 27.8381 186.621 27.8274C186.855 27.8167 187.042 27.8114 187.181 27.8114V28.8994H183.901ZM187.181 24.5314H190.189L189.325 22.1794C189.197 21.8167 189.074 21.4541 188.957 21.0914C188.85 20.7181 188.759 20.3767 188.685 20.0674H188.653C188.589 20.2807 188.509 20.5581 188.413 20.8994C188.327 21.2407 188.205 21.6301 188.045 22.0674L187.181 24.5314ZM203.778 29.0914L198.226 21.8754C198.108 21.7047 197.98 21.5341 197.842 21.3634C197.714 21.1821 197.586 21.0007 197.458 20.8194H197.442L197.474 26.4034C197.474 26.6914 197.468 26.9687 197.458 27.2354C197.458 27.5021 197.447 27.7207 197.426 27.8914C197.607 27.8807 197.815 27.8701 198.05 27.8594C198.284 27.8487 198.471 27.8434 198.61 27.8434V28.8994H195.202V28.0194C195.479 28.0087 195.692 27.9661 195.842 27.8914C196.002 27.8061 196.119 27.6674 196.194 27.4754C196.268 27.2727 196.306 27.0061 196.306 26.6754L196.29 20.0194C196.29 19.7634 196.295 19.5181 196.306 19.2834C196.316 19.0487 196.327 18.8567 196.338 18.7074C196.167 18.7181 195.964 18.7287 195.73 18.7394C195.495 18.7394 195.308 18.7447 195.17 18.7554V17.6994H197.474L202.738 24.4994C202.962 24.7874 203.154 25.0434 203.314 25.2674C203.484 25.4914 203.634 25.6941 203.762 25.8754H203.778V20.0514C203.778 19.7847 203.783 19.5287 203.794 19.2834C203.804 19.0381 203.815 18.8461 203.826 18.7074C203.655 18.7181 203.452 18.7287 203.218 18.7394C202.983 18.7394 202.791 18.7447 202.642 18.7554V17.6994H206.066V18.5794C205.778 18.5901 205.548 18.6434 205.378 18.7394C205.218 18.8247 205.106 18.9794 205.042 19.2034C204.978 19.4274 204.946 19.7474 204.946 20.1634L204.93 29.0914H203.778ZM219.99 21.2354C219.99 20.6381 219.915 20.1474 219.766 19.7634C219.616 19.3687 219.392 19.0754 219.094 18.8834C218.806 18.6914 218.438 18.6007 217.99 18.6114H217.014V26.5154C217.014 26.8034 217.008 27.0701 216.998 27.3154C216.987 27.5607 216.971 27.7527 216.95 27.8914C217.152 27.8807 217.382 27.8701 217.638 27.8594C217.904 27.8487 218.107 27.8434 218.246 27.8434V28.8994H213.878V28.0194C214.176 28.0087 214.406 27.9554 214.566 27.8594C214.726 27.7634 214.838 27.6034 214.902 27.3794C214.966 27.1554 214.998 26.8407 214.998 26.4354L215.014 18.6274H213.974C213.344 18.6381 212.864 18.8514 212.534 19.2674C212.203 19.6834 212.038 20.3394 212.038 21.2354H211.142L211.222 17.6994H220.806L220.902 21.2354H219.99ZM220.526 28.8994V27.9874C220.824 27.9874 221.064 27.9021 221.246 27.7314C221.427 27.5607 221.576 27.3367 221.694 27.0594C221.811 26.7714 221.934 26.4514 222.062 26.0994L225.246 17.4114H226.11L229.582 26.2594C229.646 26.4407 229.731 26.6967 229.838 27.0274C229.944 27.3581 230.003 27.6461 230.014 27.8914C230.195 27.8807 230.371 27.8701 230.542 27.8594C230.712 27.8487 230.862 27.8434 230.99 27.8434V28.8994H226.91V28.0194C227.24 28.0194 227.464 27.9501 227.582 27.8114C227.699 27.6727 227.747 27.4914 227.726 27.2674C227.715 27.0434 227.662 26.8141 227.566 26.5794L227.166 25.4914L223.454 25.5554L223.102 26.6274C223.038 26.8087 222.963 27.0167 222.878 27.2514C222.792 27.4754 222.707 27.6781 222.622 27.8594C222.814 27.8487 223.022 27.8381 223.246 27.8274C223.48 27.8167 223.667 27.8114 223.806 27.8114V28.8994H220.526ZM223.806 24.5314H226.814L225.95 22.1794C225.822 21.8167 225.699 21.4541 225.582 21.0914C225.475 20.7181 225.384 20.3767 225.31 20.0674H225.278C225.214 20.2807 225.134 20.5581 225.038 20.8994C224.952 21.2407 224.83 21.6301 224.67 22.0674L223.806 24.5314ZM227.854 16.5954L225.694 15.2194L223.486 16.5634L223.07 15.9394L225.646 13.5714H225.87L228.318 15.9234L227.854 16.5954ZM237.635 29.0594C237.24 28.1101 236.84 27.1714 236.435 26.2434C236.04 25.3047 235.645 24.3607 235.251 23.4114C235.144 23.1661 235.021 22.8621 234.883 22.4994C234.744 22.1367 234.605 21.7367 234.467 21.2994C234.328 20.8621 234.195 20.4141 234.067 19.9554C234.088 20.3927 234.099 20.8087 234.099 21.2034C234.109 21.5874 234.109 21.9607 234.099 22.3234C234.099 22.6114 234.093 22.9261 234.083 23.2674C234.083 23.6087 234.077 23.9607 234.067 24.3234C234.056 24.6861 234.045 25.0541 234.035 25.4274C234.035 25.7901 234.035 26.1421 234.035 26.4834C234.024 26.7501 234.013 27.0114 234.003 27.2674C233.992 27.5234 233.976 27.7314 233.955 27.8914C234.147 27.8807 234.36 27.8701 234.595 27.8594C234.84 27.8487 235.032 27.8434 235.171 27.8434V28.8994H231.715V28.0194C231.992 28.0087 232.211 27.9661 232.371 27.8914C232.531 27.8061 232.648 27.6621 232.723 27.4594C232.797 27.2567 232.835 26.9687 232.835 26.5954L233.011 20.0834C233.021 19.8167 233.027 19.5607 233.027 19.3154C233.037 19.0701 233.048 18.8674 233.059 18.7074C232.888 18.7181 232.685 18.7287 232.451 18.7394C232.216 18.7394 232.024 18.7447 231.875 18.7554V17.6994H235.059L237.587 23.9394C237.693 24.2167 237.805 24.5154 237.923 24.8354C238.051 25.1554 238.173 25.4701 238.291 25.7794C238.408 26.0887 238.509 26.3607 238.595 26.5954H238.611C238.749 26.2541 238.883 25.9021 239.011 25.5394C239.139 25.1661 239.267 24.8194 239.395 24.4994C239.821 23.3687 240.253 22.2434 240.691 21.1234C241.139 19.9927 241.587 18.8514 242.035 17.6994H245.283V18.5794C245.037 18.5794 244.824 18.6167 244.643 18.6914C244.472 18.7661 244.344 18.9101 244.259 19.1234C244.173 19.3261 244.136 19.6461 244.147 20.0834L244.451 26.5954C244.472 26.8514 244.472 27.0967 244.451 27.3314C244.44 27.5661 244.429 27.7527 244.419 27.8914C244.6 27.8701 244.808 27.8594 245.043 27.8594C245.288 27.8487 245.48 27.8434 245.619 27.8434V28.8994H241.459V28.0194C241.725 28.0087 241.944 27.9607 242.115 27.8754C242.285 27.7901 242.408 27.6407 242.483 27.4274C242.557 27.2034 242.584 26.8781 242.563 26.4514L242.371 22.4354C242.371 22.2967 242.36 22.0941 242.339 21.8274C242.317 21.5607 242.301 21.2727 242.291 20.9634C242.28 20.6541 242.269 20.3607 242.259 20.0834C242.227 20.1581 242.189 20.2327 242.147 20.3074C242.115 20.3821 242.088 20.4567 242.067 20.5314L238.787 29.0594H237.635Z" fill="black"/>
</svg>
