<svg width="363" height="157" viewBox="0 0 363 157" fill="none" xmlns="http://www.w3.org/2000/svg">
<rect x="12.2109" y="40.4497" width="338.578" height="101" rx="16" fill="#F4F4F4"/>
<path d="M159.078 152.45H80.0388H25C11.7452 152.45 1 141.705 1 128.45V54.4497C1 41.1949 11.7452 30.4497 25 30.4497H338C351.255 30.4497 362 41.1949 362 54.4497V128.45C362 141.705 351.255 152.45 338 152.45H203.922" stroke="#D0C693"/>
<path d="M153.472 148.45L160.199 152.45L153.472 156.45L128.808 152.45L153.472 148.45Z" fill="#D0C693"/>
<path d="M209.528 148.45L202.801 152.45L209.528 156.45L234.192 152.45L209.528 148.45Z" fill="#D0C693"/>
<ellipse cx="168.047" cy="152.45" rx="3.36336" ry="3" fill="#D0C693"/>
<ellipse cx="181.5" cy="152.45" rx="2.24223" ry="2" fill="#D0C693"/>
<ellipse cx="3.36336" cy="3" rx="3.36336" ry="3" transform="matrix(-1 0 0 1 198.317 149.45)" fill="#D0C693"/>
<path d="M59.2984 13.2668C74.0609 16.6806 86.3921 12.1002 92.3714 12.7668L105.825 52.4497C97.0427 53.4497 60.868 53.4965 53.6928 51.0965C46.5177 48.6965 37.2498 49.4298 33.5127 50.0965L53.6928 30.7669C51.4506 27.1669 38.9314 19.6002 33.5127 16.7669C37.9972 18.7668 44.1633 9.76689 59.2984 13.2668Z" fill="#C1B67A"/>
<path d="M105.825 52.4497L76.1152 42.9497H105.825V52.4497Z" fill="#8C8151"/>
<path d="M304.263 13.2668C289.501 16.6806 277.169 12.1002 271.19 12.7668L257.737 52.4497C266.519 53.4497 302.694 53.4965 309.869 51.0965C317.044 48.6965 326.312 49.4298 330.049 50.0965L309.869 30.7669C312.111 27.1669 324.63 19.6002 330.049 16.7669C325.564 18.7668 319.398 9.76689 304.263 13.2668Z" fill="#C1B67A"/>
<path d="M257.737 52.4497L287.446 42.9497H257.737V52.4497Z" fill="#8C8151"/>
<path d="M74.9941 4.57843C74.9941 3.58156 75.699 2.74356 76.6887 2.62408C85.4866 1.56194 127.792 -2.82995 185.985 2.84024C241.942 8.29259 276.68 4.44109 285.674 3.19273C286.905 3.02187 288.007 3.97876 288.007 5.22151V41.4498C288.007 42.5543 287.102 43.4494 285.998 43.4532C247.409 43.5832 220.701 47.3819 185.985 43.4498C151.215 39.5116 119.497 43.3281 77.0023 43.4469C75.8977 43.45 74.9941 42.5543 74.9941 41.4498V4.57843Z" fill="#D0C693"/>
<path d="M100.756 28.4497V27.5697C101.054 27.559 101.284 27.511 101.444 27.4257C101.604 27.3297 101.716 27.1697 101.78 26.9457C101.844 26.711 101.876 26.391 101.876 25.9857V19.6017C101.876 19.335 101.881 19.079 101.892 18.8337C101.913 18.5884 101.929 18.3964 101.94 18.2577C101.758 18.2684 101.55 18.279 101.316 18.2897C101.081 18.2897 100.894 18.295 100.756 18.3057V17.2497H105.012V18.1297C104.724 18.1404 104.494 18.1937 104.324 18.2897C104.164 18.375 104.052 18.5297 103.988 18.7537C103.924 18.9777 103.892 19.2977 103.892 19.7137V22.2097H105.06L106.548 19.7617C106.708 19.4737 106.889 19.1804 107.092 18.8817C107.294 18.583 107.481 18.3697 107.652 18.2417C107.481 18.2524 107.305 18.263 107.124 18.2737C106.942 18.2737 106.782 18.279 106.644 18.2897V17.2497H110.404V18.1297C110.105 18.151 109.806 18.2044 109.508 18.2897C109.209 18.375 108.91 18.5457 108.612 18.8017C108.313 19.047 108.004 19.4257 107.684 19.9377L106.132 22.4177C106.377 22.567 106.585 22.7324 106.756 22.9137C106.937 23.095 107.102 23.287 107.252 23.4897L108.948 25.8417C109.225 26.215 109.481 26.5297 109.716 26.7857C109.961 27.0417 110.196 27.2337 110.42 27.3617C110.654 27.4897 110.889 27.559 111.124 27.5697V28.4497H108.836C108.74 28.439 108.596 28.3484 108.404 28.1777C108.222 28.007 108.025 27.799 107.812 27.5537C107.609 27.2977 107.422 27.0577 107.252 26.8337L105.556 24.4337C105.396 24.2097 105.225 23.991 105.044 23.7777C104.862 23.5537 104.692 23.383 104.532 23.2657L103.892 23.2817V26.0657C103.892 26.3537 103.886 26.6204 103.876 26.8657C103.865 27.111 103.849 27.303 103.828 27.4417C104.009 27.431 104.217 27.4204 104.452 27.4097C104.686 27.399 104.873 27.3937 105.012 27.3937V28.4497H100.756ZM111.99 28.4497V27.5697C112.289 27.559 112.518 27.511 112.678 27.4257C112.838 27.3297 112.95 27.1697 113.014 26.9457C113.078 26.711 113.11 26.391 113.11 25.9857V19.6017C113.11 19.335 113.116 19.079 113.126 18.8337C113.148 18.5884 113.164 18.3964 113.174 18.2577C112.993 18.2684 112.785 18.279 112.55 18.2897C112.316 18.2897 112.129 18.295 111.99 18.3057V17.2497H116.246V18.1297C115.958 18.1404 115.729 18.1937 115.558 18.2897C115.398 18.375 115.286 18.5297 115.222 18.7537C115.158 18.9777 115.126 19.2977 115.126 19.7137V22.2577H119.958V19.6017C119.958 19.335 119.964 19.079 119.974 18.8337C119.985 18.5884 120.001 18.3964 120.022 18.2577C119.841 18.2684 119.633 18.279 119.398 18.2897C119.164 18.2897 118.977 18.295 118.838 18.3057V17.2497H123.094V18.1297C122.806 18.1404 122.577 18.1937 122.406 18.2897C122.246 18.375 122.134 18.5297 122.07 18.7537C122.006 18.9777 121.974 19.2977 121.974 19.7137V26.0657C121.974 26.3537 121.969 26.6204 121.958 26.8657C121.948 27.111 121.932 27.303 121.91 27.4417C122.092 27.431 122.3 27.4204 122.534 27.4097C122.78 27.399 122.966 27.3937 123.094 27.3937V28.4497H118.838V27.5697C119.137 27.559 119.366 27.511 119.526 27.4257C119.686 27.3297 119.798 27.1697 119.862 26.9457C119.926 26.711 119.958 26.391 119.958 25.9857V23.2817L115.126 23.3457V26.0657C115.126 26.3537 115.121 26.6204 115.11 26.8657C115.1 27.111 115.084 27.303 115.062 27.4417C115.244 27.431 115.452 27.4204 115.686 27.4097C115.921 27.399 116.108 27.3937 116.246 27.3937V28.4497H111.99ZM128.644 16.4017L128.148 15.7137L130.004 13.8257C130.174 13.6657 130.345 13.5644 130.516 13.5217C130.697 13.4684 130.862 13.463 131.012 13.5057C131.172 13.5484 131.3 13.639 131.396 13.7777C131.492 13.9057 131.534 14.055 131.524 14.2257C131.524 14.3857 131.47 14.5457 131.364 14.7057C131.268 14.8657 131.124 15.0044 130.932 15.1217L128.644 16.4017ZM123.94 28.4497V27.5377C124.238 27.5377 124.478 27.4524 124.66 27.2817C124.841 27.111 124.99 26.887 125.108 26.6097C125.225 26.3217 125.348 26.0017 125.476 25.6497L128.66 16.9617H129.524L132.996 25.8097C133.06 25.991 133.145 26.247 133.252 26.5777C133.358 26.9084 133.417 27.1964 133.428 27.4417C133.609 27.431 133.785 27.4204 133.956 27.4097C134.126 27.399 134.276 27.3937 134.404 27.3937V28.4497H130.324V27.5697C130.654 27.5697 130.878 27.5004 130.996 27.3617C131.113 27.223 131.161 27.0417 131.14 26.8177C131.129 26.5937 131.076 26.3644 130.98 26.1297L130.58 25.0417L126.868 25.1057L126.516 26.1777C126.452 26.359 126.377 26.567 126.292 26.8017C126.206 27.0257 126.121 27.2284 126.036 27.4097C126.228 27.399 126.436 27.3884 126.66 27.3777C126.894 27.367 127.081 27.3617 127.22 27.3617V28.4497H123.94ZM127.22 24.0817H130.228L129.364 21.7297C129.236 21.367 129.113 21.0044 128.996 20.6417C128.889 20.2684 128.798 19.927 128.724 19.6177H128.692C128.628 19.831 128.548 20.1084 128.452 20.4497C128.366 20.791 128.244 21.1804 128.084 21.6177L127.22 24.0817ZM141.049 28.6097C140.654 27.6604 140.254 26.7217 139.849 25.7937C139.454 24.855 139.059 23.911 138.665 22.9617C138.558 22.7164 138.435 22.4124 138.297 22.0497C138.158 21.687 138.019 21.287 137.881 20.8497C137.742 20.4124 137.609 19.9644 137.481 19.5057C137.502 19.943 137.513 20.359 137.513 20.7537C137.523 21.1377 137.523 21.511 137.513 21.8737C137.513 22.1617 137.507 22.4764 137.497 22.8177C137.497 23.159 137.491 23.511 137.481 23.8737C137.47 24.2364 137.459 24.6044 137.449 24.9777C137.449 25.3404 137.449 25.6924 137.449 26.0337C137.438 26.3004 137.427 26.5617 137.417 26.8177C137.406 27.0737 137.39 27.2817 137.369 27.4417C137.561 27.431 137.774 27.4204 138.009 27.4097C138.254 27.399 138.446 27.3937 138.585 27.3937V28.4497H135.129V27.5697C135.406 27.559 135.625 27.5164 135.785 27.4417C135.945 27.3564 136.062 27.2124 136.137 27.0097C136.211 26.807 136.249 26.519 136.249 26.1457L136.425 19.6337C136.435 19.367 136.441 19.111 136.441 18.8657C136.451 18.6204 136.462 18.4177 136.473 18.2577C136.302 18.2684 136.099 18.279 135.865 18.2897C135.63 18.2897 135.438 18.295 135.289 18.3057V17.2497H138.473L141.001 23.4897C141.107 23.767 141.219 24.0657 141.337 24.3857C141.465 24.7057 141.587 25.0204 141.705 25.3297C141.822 25.639 141.923 25.911 142.009 26.1457H142.025C142.163 25.8044 142.297 25.4524 142.425 25.0897C142.553 24.7164 142.681 24.3697 142.809 24.0497C143.235 22.919 143.667 21.7937 144.105 20.6737C144.553 19.543 145.001 18.4017 145.449 17.2497H148.697V18.1297C148.451 18.1297 148.238 18.167 148.057 18.2417C147.886 18.3164 147.758 18.4604 147.673 18.6737C147.587 18.8764 147.55 19.1964 147.561 19.6337L147.865 26.1457C147.886 26.4017 147.886 26.647 147.865 26.8817C147.854 27.1164 147.843 27.303 147.833 27.4417C148.014 27.4204 148.222 27.4097 148.457 27.4097C148.702 27.399 148.894 27.3937 149.033 27.3937V28.4497H144.873V27.5697C145.139 27.559 145.358 27.511 145.529 27.4257C145.699 27.3404 145.822 27.191 145.897 26.9777C145.971 26.7537 145.998 26.4284 145.977 26.0017L145.785 21.9857C145.785 21.847 145.774 21.6444 145.753 21.3777C145.731 21.111 145.715 20.823 145.705 20.5137C145.694 20.2044 145.683 19.911 145.673 19.6337C145.641 19.7084 145.603 19.783 145.561 19.8577C145.529 19.9324 145.502 20.007 145.481 20.0817L142.201 28.6097H141.049ZM154.693 27.5697C154.992 27.559 155.221 27.511 155.381 27.4257C155.541 27.3297 155.653 27.1697 155.717 26.9457C155.781 26.711 155.813 26.391 155.813 25.9857V19.6017C155.813 19.335 155.819 19.079 155.829 18.8337C155.851 18.5884 155.867 18.3964 155.877 18.2577C155.696 18.2684 155.488 18.279 155.253 18.2897C155.019 18.2897 154.832 18.295 154.693 18.3057V17.2497C155.387 17.239 156.085 17.2337 156.789 17.2337C157.493 17.2337 158.197 17.2284 158.901 17.2177C159.872 17.207 160.709 17.3297 161.413 17.5857C162.117 17.831 162.656 18.2097 163.029 18.7217C163.403 19.223 163.589 19.8737 163.589 20.6737C163.589 21.1004 163.499 21.527 163.317 21.9537C163.147 22.3697 162.869 22.759 162.485 23.1217C162.112 23.4737 161.616 23.7617 160.997 23.9857C160.389 24.2097 159.653 24.3324 158.789 24.3537C158.619 24.3537 158.453 24.3537 158.293 24.3537C158.133 24.3537 157.979 24.3484 157.829 24.3377V26.0497C157.829 26.3484 157.824 26.6204 157.813 26.8657C157.803 27.111 157.787 27.303 157.765 27.4417C157.904 27.431 158.059 27.4257 158.229 27.4257C158.4 27.415 158.571 27.4097 158.741 27.4097C158.923 27.399 159.061 27.3937 159.157 27.3937V28.4497H154.693V27.5697ZM157.829 23.3297C157.968 23.3404 158.101 23.351 158.229 23.3617C158.357 23.3724 158.496 23.3777 158.645 23.3777C159.243 23.3777 159.744 23.271 160.149 23.0577C160.565 22.8444 160.88 22.5404 161.093 22.1457C161.307 21.7404 161.413 21.2497 161.413 20.6737C161.413 20.151 161.339 19.7244 161.189 19.3937C161.04 19.063 160.843 18.8124 160.597 18.6417C160.352 18.4604 160.08 18.3377 159.781 18.2737C159.483 18.2097 159.184 18.1777 158.885 18.1777C158.608 18.1777 158.389 18.2204 158.229 18.3057C158.08 18.391 157.973 18.5457 157.909 18.7697C157.856 18.983 157.829 19.2764 157.829 19.6497V23.3297ZM164.646 28.4497V27.5697C164.945 27.559 165.174 27.511 165.334 27.4257C165.494 27.3297 165.606 27.1697 165.67 26.9457C165.734 26.711 165.766 26.391 165.766 25.9857V19.6017C165.766 19.335 165.772 19.079 165.782 18.8337C165.804 18.5884 165.82 18.3964 165.83 18.2577C165.649 18.2684 165.441 18.279 165.206 18.2897C164.972 18.2897 164.785 18.295 164.646 18.3057V17.2497H168.902V18.1297C168.614 18.1404 168.385 18.1937 168.214 18.2897C168.054 18.375 167.942 18.5297 167.878 18.7537C167.814 18.9777 167.782 19.2977 167.782 19.7137V22.2577H172.614V19.6017C172.614 19.335 172.62 19.079 172.63 18.8337C172.641 18.5884 172.657 18.3964 172.678 18.2577C172.497 18.2684 172.289 18.279 172.054 18.2897C171.82 18.2897 171.633 18.295 171.494 18.3057V17.2497H175.75V18.1297C175.462 18.1404 175.233 18.1937 175.062 18.2897C174.902 18.375 174.79 18.5297 174.726 18.7537C174.662 18.9777 174.63 19.2977 174.63 19.7137V26.0657C174.63 26.3537 174.625 26.6204 174.614 26.8657C174.604 27.111 174.588 27.303 174.566 27.4417C174.748 27.431 174.956 27.4204 175.19 27.4097C175.436 27.399 175.622 27.3937 175.75 27.3937V28.4497H171.494V27.5697C171.793 27.559 172.022 27.511 172.182 27.4257C172.342 27.3297 172.454 27.1697 172.518 26.9457C172.582 26.711 172.614 26.391 172.614 25.9857V23.2817L167.782 23.3457V26.0657C167.782 26.3537 167.777 26.6204 167.766 26.8657C167.756 27.111 167.74 27.303 167.718 27.4417C167.9 27.431 168.108 27.4204 168.342 27.4097C168.577 27.399 168.764 27.3937 168.902 27.3937V28.4497H164.646ZM181.3 16.4017L180.804 15.7137L182.66 13.8257C182.831 13.6657 183.001 13.5644 183.172 13.5217C183.353 13.4684 183.519 13.463 183.668 13.5057C183.828 13.5484 183.956 13.639 184.052 13.7777C184.148 13.9057 184.191 14.055 184.18 14.2257C184.18 14.3857 184.127 14.5457 184.02 14.7057C183.924 14.8657 183.78 15.0044 183.588 15.1217L181.3 16.4017ZM176.596 28.4497V27.5377C176.895 27.5377 177.135 27.4524 177.316 27.2817C177.497 27.111 177.647 26.887 177.764 26.6097C177.881 26.3217 178.004 26.0017 178.132 25.6497L181.316 16.9617H182.18L185.652 25.8097C185.716 25.991 185.801 26.247 185.908 26.5777C186.015 26.9084 186.073 27.1964 186.084 27.4417C186.265 27.431 186.441 27.4204 186.612 27.4097C186.783 27.399 186.932 27.3937 187.06 27.3937V28.4497H182.98V27.5697C183.311 27.5697 183.535 27.5004 183.652 27.3617C183.769 27.223 183.817 27.0417 183.796 26.8177C183.785 26.5937 183.732 26.3644 183.636 26.1297L183.236 25.0417L179.524 25.1057L179.172 26.1777C179.108 26.359 179.033 26.567 178.948 26.8017C178.863 27.0257 178.777 27.2284 178.692 27.4097C178.884 27.399 179.092 27.3884 179.316 27.3777C179.551 27.367 179.737 27.3617 179.876 27.3617V28.4497H176.596ZM179.876 24.0817H182.884L182.02 21.7297C181.892 21.367 181.769 21.0044 181.652 20.6417C181.545 20.2684 181.455 19.927 181.38 19.6177H181.348C181.284 19.831 181.204 20.1084 181.108 20.4497C181.023 20.791 180.9 21.1804 180.74 21.6177L179.876 24.0817ZM200.532 20.8337C200.404 19.9057 200.089 19.2017 199.588 18.7217C199.087 18.231 198.436 17.9857 197.636 17.9857C197.071 17.9857 196.564 18.1137 196.116 18.3697C195.679 18.615 195.305 18.9564 194.996 19.3937C194.697 19.8204 194.468 20.3217 194.308 20.8977C194.148 21.463 194.068 22.071 194.068 22.7217C194.068 23.671 194.217 24.5084 194.516 25.2337C194.825 25.959 195.252 26.5297 195.796 26.9457C196.351 27.3617 196.996 27.5697 197.732 27.5697C198.415 27.5697 199.087 27.4044 199.748 27.0737C200.42 26.7324 200.975 26.2524 201.412 25.6337L202.068 26.2257C201.567 26.9084 201.033 27.431 200.468 27.7937C199.903 28.1457 199.348 28.3857 198.804 28.5137C198.271 28.6417 197.785 28.7057 197.348 28.7057C196.527 28.7057 195.78 28.5617 195.108 28.2737C194.447 27.975 193.871 27.5697 193.38 27.0577C192.9 26.535 192.527 25.9324 192.26 25.2497C192.004 24.5564 191.876 23.8097 191.876 23.0097C191.876 22.2737 191.988 21.5484 192.212 20.8337C192.447 20.119 192.793 19.4737 193.252 18.8977C193.721 18.3217 194.308 17.863 195.012 17.5217C195.716 17.1697 196.532 16.9937 197.46 16.9937C197.929 16.9937 198.42 17.0684 198.932 17.2177C199.444 17.3564 199.924 17.5644 200.372 17.8417L200.308 17.1057H201.412V20.8337H200.532ZM203.162 28.4497V27.5697C203.461 27.559 203.69 27.511 203.85 27.4257C204.01 27.3297 204.122 27.1697 204.186 26.9457C204.25 26.711 204.282 26.391 204.282 25.9857V19.6017C204.282 19.335 204.287 19.079 204.298 18.8337C204.319 18.5884 204.335 18.3964 204.346 18.2577C204.165 18.2684 203.957 18.279 203.722 18.2897C203.487 18.2897 203.301 18.295 203.162 18.3057V17.2497H207.418V18.1297C207.13 18.1404 206.901 18.1937 206.73 18.2897C206.57 18.375 206.458 18.5297 206.394 18.7537C206.33 18.9777 206.298 19.2977 206.298 19.7137V22.2577H211.13V19.6017C211.13 19.335 211.135 19.079 211.146 18.8337C211.157 18.5884 211.173 18.3964 211.194 18.2577C211.013 18.2684 210.805 18.279 210.57 18.2897C210.335 18.2897 210.149 18.295 210.01 18.3057V17.2497H214.266V18.1297C213.978 18.1404 213.749 18.1937 213.578 18.2897C213.418 18.375 213.306 18.5297 213.242 18.7537C213.178 18.9777 213.146 19.2977 213.146 19.7137V26.0657C213.146 26.3537 213.141 26.6204 213.13 26.8657C213.119 27.111 213.103 27.303 213.082 27.4417C213.263 27.431 213.471 27.4204 213.706 27.4097C213.951 27.399 214.138 27.3937 214.266 27.3937V28.4497H210.01V27.5697C210.309 27.559 210.538 27.511 210.698 27.4257C210.858 27.3297 210.97 27.1697 211.034 26.9457C211.098 26.711 211.13 26.391 211.13 25.9857V23.2817L206.298 23.3457V26.0657C206.298 26.3537 206.293 26.6204 206.282 26.8657C206.271 27.111 206.255 27.303 206.234 27.4417C206.415 27.431 206.623 27.4204 206.858 27.4097C207.093 27.399 207.279 27.3937 207.418 27.3937V28.4497H203.162ZM219.8 18.1297C219.522 18.1404 219.298 18.1884 219.128 18.2737C218.968 18.359 218.85 18.4977 218.776 18.6897C218.712 18.871 218.68 19.1324 218.68 19.4737V23.7617C218.68 24.4017 218.738 24.9617 218.856 25.4417C218.984 25.911 219.165 26.3057 219.4 26.6257C219.634 26.9457 219.922 27.1857 220.264 27.3457C220.616 27.5057 221.021 27.5857 221.48 27.5857C222.12 27.607 222.658 27.4737 223.096 27.1857C223.544 26.8977 223.88 26.4764 224.104 25.9217C224.328 25.367 224.44 24.6897 224.44 23.8897L224.456 19.6017C224.456 19.335 224.461 19.079 224.472 18.8337C224.482 18.5884 224.498 18.3964 224.52 18.2577C224.338 18.2684 224.13 18.279 223.896 18.2897C223.661 18.2897 223.474 18.295 223.336 18.3057V17.2497H226.792V18.1297C226.504 18.1404 226.274 18.1937 226.104 18.2897C225.944 18.375 225.832 18.5297 225.768 18.7537C225.704 18.9777 225.672 19.2977 225.672 19.7137L225.656 23.6177C225.656 24.4604 225.554 25.2017 225.352 25.8417C225.16 26.471 224.872 26.999 224.488 27.4257C224.104 27.8524 223.64 28.1724 223.096 28.3857C222.552 28.599 221.933 28.7057 221.24 28.7057C220.354 28.7057 219.613 28.583 219.016 28.3377C218.429 28.0924 217.96 27.7404 217.608 27.2817C217.266 26.8124 217.021 26.263 216.872 25.6337C216.733 24.9937 216.664 24.279 216.664 23.4897V19.8257C216.664 19.5484 216.669 19.2604 216.68 18.9617C216.701 18.6524 216.717 18.4177 216.728 18.2577C216.546 18.2684 216.338 18.279 216.104 18.2897C215.869 18.2897 215.682 18.295 215.544 18.3057V17.2497H219.8V18.1297ZM220.968 16.2737C220.968 16.0604 221.037 15.8897 221.176 15.7617C221.314 15.6337 221.453 15.5057 221.592 15.3777C221.677 15.2924 221.741 15.1964 221.784 15.0897C221.837 14.983 221.864 14.8657 221.864 14.7377C221.864 14.5244 221.789 14.3537 221.64 14.2257C221.49 14.087 221.293 14.0177 221.048 14.0177C220.792 14.0177 220.594 14.071 220.456 14.1777C220.317 14.2844 220.237 14.3804 220.216 14.4657C220.333 14.4764 220.418 14.519 220.472 14.5937C220.536 14.6577 220.568 14.7377 220.568 14.8337C220.568 14.9617 220.52 15.0737 220.424 15.1697C220.328 15.2657 220.194 15.3137 220.024 15.3137C219.821 15.3137 219.65 15.2444 219.512 15.1057C219.373 14.967 219.304 14.7857 219.304 14.5617C219.304 14.3377 219.368 14.1244 219.496 13.9217C219.634 13.7084 219.837 13.5324 220.104 13.3937C220.37 13.255 220.685 13.1857 221.048 13.1857C221.656 13.1857 222.125 13.319 222.456 13.5857C222.797 13.8524 222.968 14.1937 222.968 14.6097C222.968 14.887 222.898 15.1057 222.76 15.2657C222.632 15.4257 222.477 15.5644 222.296 15.6817C222.168 15.7884 222.061 15.8897 221.976 15.9857C221.89 16.0817 221.848 16.1777 221.848 16.2737H220.968ZM231.824 23.3297V22.2737H238V23.2977L231.824 23.3297ZM232.256 27.5697C232.555 27.559 232.784 27.511 232.944 27.4257C233.104 27.3297 233.216 27.1697 233.28 26.9457C233.344 26.711 233.376 26.391 233.376 25.9857V19.6017C233.376 19.335 233.382 19.079 233.392 18.8337C233.414 18.5884 233.43 18.3964 233.44 18.2577C233.259 18.2684 233.051 18.279 232.816 18.2897C232.582 18.2897 232.395 18.295 232.256 18.3057V17.2497L236.608 17.2337C237.632 17.2337 238.534 17.3777 239.312 17.6657C240.102 17.943 240.758 18.3377 241.28 18.8497C241.803 19.3617 242.198 19.9537 242.464 20.6257C242.742 21.2977 242.88 22.0177 242.88 22.7857C242.88 23.4577 242.758 24.1297 242.512 24.8017C242.278 25.4737 241.91 26.087 241.408 26.6417C240.918 27.1857 240.278 27.623 239.488 27.9537C238.71 28.2844 237.782 28.4497 236.704 28.4497H232.256V27.5697ZM235.392 26.0657C235.392 26.3537 235.387 26.6204 235.376 26.8657C235.366 27.111 235.35 27.303 235.328 27.4417C235.499 27.4417 235.686 27.447 235.888 27.4577C236.091 27.4577 236.288 27.463 236.48 27.4737C236.672 27.4737 236.816 27.4737 236.912 27.4737C237.531 27.4737 238.075 27.351 238.544 27.1057C239.014 26.8604 239.403 26.5297 239.712 26.1137C240.032 25.6977 240.272 25.223 240.432 24.6897C240.592 24.1457 240.672 23.575 240.672 22.9777C240.672 21.9217 240.507 21.0417 240.176 20.3377C239.856 19.623 239.392 19.0844 238.784 18.7217C238.176 18.3484 237.424 18.1564 236.528 18.1457C236.23 18.135 235.995 18.1777 235.824 18.2737C235.654 18.3697 235.536 18.5297 235.472 18.7537C235.419 18.9777 235.392 19.2924 235.392 19.6977V26.0657ZM249.79 24.4977C249.79 24.039 249.721 23.7137 249.582 23.5217C249.454 23.319 249.262 23.1964 249.006 23.1537C248.761 23.1004 248.462 23.079 248.11 23.0897L247.454 23.1217V26.0817C247.454 26.3697 247.449 26.6364 247.438 26.8817C247.428 27.1164 247.412 27.303 247.39 27.4417L249.838 27.4257C250.212 27.4257 250.553 27.3564 250.862 27.2177C251.172 27.0684 251.422 26.823 251.614 26.4817C251.806 26.1297 251.902 25.655 251.902 25.0577H252.782L252.702 28.4497H244.318V27.5697C244.617 27.559 244.846 27.511 245.006 27.4257C245.166 27.3297 245.278 27.1697 245.342 26.9457C245.406 26.711 245.438 26.391 245.438 25.9857V19.6017C245.438 19.335 245.444 19.079 245.454 18.8337C245.476 18.5884 245.492 18.3964 245.502 18.2577C245.321 18.2684 245.113 18.279 244.878 18.2897C244.644 18.2897 244.457 18.295 244.318 18.3057V17.2497H252.206L252.302 20.2577H251.422C251.422 19.6497 251.321 19.1964 251.118 18.8977C250.926 18.5884 250.676 18.3804 250.366 18.2737C250.057 18.167 249.737 18.119 249.406 18.1297L248.574 18.1457C248.286 18.1564 248.062 18.2044 247.902 18.2897C247.742 18.375 247.625 18.5297 247.55 18.7537C247.486 18.967 247.454 19.287 247.454 19.7137V22.1617L249.694 22.1777L249.614 20.7857H250.67V24.4977H249.79ZM250.51 16.3217L248.702 15.1857L246.894 16.3057L246.526 15.7937L248.686 13.8417H248.846L250.878 15.7777L250.51 16.3217ZM251.006 14.3697L249.118 12.6737C248.969 12.5137 248.857 12.3484 248.782 12.1777C248.718 11.9964 248.702 11.8204 248.734 11.6497C248.777 11.479 248.862 11.3404 248.99 11.2337C249.118 11.1377 249.257 11.0844 249.406 11.0737C249.566 11.063 249.726 11.1004 249.886 11.1857C250.057 11.2604 250.206 11.3937 250.334 11.5857L251.646 13.8097L251.006 14.3697Z" fill="black"/>
</svg>
